<svg width="38" height="38" viewBox="0 0 38 38" fill="none" xmlns="http://www.w3.org/2000/svg">
<path fill-rule="evenodd" clip-rule="evenodd" d="M15.0834 9.557C16.0965 9.51036 16.4195 9.5 19 9.5C21.5805 9.5 21.9035 9.51123 22.9157 9.557C23.9279 9.60277 24.6188 9.76427 25.2234 9.99832C25.8564 10.2375 26.4307 10.6115 26.9057 11.0951C27.3894 11.5693 27.7625 12.1427 28.0008 12.7766C28.2357 13.3812 28.3964 14.0721 28.443 15.0825C28.4896 16.0973 28.5 16.4203 28.5 19C28.5 21.5805 28.4888 21.9035 28.443 22.9166C28.3972 23.927 28.2357 24.618 28.0008 25.2225C27.7624 25.8565 27.3887 26.4309 26.9057 26.9057C26.4307 27.3894 25.8564 27.7625 25.2234 28.0008C24.6188 28.2357 23.9279 28.3964 22.9175 28.443C21.9035 28.4896 21.5805 28.5 19 28.5C16.4195 28.5 16.0965 28.4888 15.0834 28.443C14.073 28.3972 13.382 28.2357 12.7775 28.0008C12.1435 27.7624 11.5691 27.3887 11.0943 26.9057C10.611 26.4313 10.237 25.8572 9.99832 25.2234C9.76427 24.6188 9.60364 23.9279 9.557 22.9175C9.51036 21.9027 9.5 21.5797 9.5 19C9.5 16.4195 9.51123 16.0965 9.557 15.0843C9.60277 14.0721 9.76427 13.3812 9.99832 12.7766C10.2373 12.1428 10.6116 11.5687 11.0951 11.0943C11.5693 10.6111 12.1431 10.2371 12.7766 9.99832C13.3812 9.76427 14.073 9.60364 15.0834 9.557ZM22.8389 11.267C21.837 11.2212 21.5365 11.2117 19 11.2117C16.4635 11.2117 16.163 11.2212 15.1611 11.267C14.2345 11.3093 13.7318 11.4639 13.3967 11.5943C12.9537 11.767 12.6367 11.9717 12.3042 12.3042C11.989 12.6109 11.7465 12.9842 11.5943 13.3967C11.4639 13.7318 11.3093 14.2345 11.267 15.1611C11.2212 16.163 11.2117 16.4635 11.2117 19C11.2117 21.5365 11.2212 21.837 11.267 22.8389C11.3093 23.7655 11.4639 24.2682 11.5943 24.6033C11.7463 25.0152 11.989 25.3892 12.3042 25.6958C12.6108 26.011 12.9848 26.2537 13.3967 26.4057C13.7318 26.5361 14.2345 26.6907 15.1611 26.733C16.163 26.7788 16.4626 26.7883 19 26.7883C21.5374 26.7883 21.837 26.7788 22.8389 26.733C23.7655 26.6907 24.2682 26.5361 24.6033 26.4057C25.0463 26.233 25.3633 26.0283 25.6958 25.6958C26.011 25.3892 26.2537 25.0152 26.4057 24.6033C26.5361 24.2682 26.6907 23.7655 26.733 22.8389C26.7788 21.837 26.7883 21.5365 26.7883 19C26.7883 16.4635 26.7788 16.163 26.733 15.1611C26.6907 14.2345 26.5361 13.7318 26.4057 13.3967C26.233 12.9537 26.0283 12.6367 25.6958 12.3042C25.3891 11.9891 25.0158 11.7465 24.6033 11.5943C24.2682 11.4639 23.7655 11.3093 22.8389 11.267ZM17.7866 21.9286C18.4643 22.2107 19.2188 22.2488 19.9214 22.0363C20.6241 21.8239 21.2311 21.3741 21.6389 20.7638C22.0468 20.1534 22.23 19.4205 22.1575 18.69C22.0849 17.9596 21.761 17.277 21.2411 16.7589C20.9097 16.4276 20.509 16.174 20.0677 16.0163C19.6265 15.8585 19.1558 15.8005 18.6895 15.8465C18.2232 15.8925 17.7729 16.0413 17.371 16.2822C16.9691 16.5232 16.6256 16.8502 16.3653 17.2398C16.105 17.6294 15.9343 18.0718 15.8654 18.5353C15.7966 18.9988 15.8314 19.4718 15.9674 19.9202C16.1033 20.3686 16.337 20.7813 16.6515 21.1286C16.9661 21.4759 17.3538 21.7491 17.7866 21.9286ZM15.5472 15.5472C16.0006 15.0938 16.5389 14.7341 17.1313 14.4887C17.7238 14.2433 18.3588 14.117 19 14.117C19.6412 14.117 20.2762 14.2433 20.8687 14.4887C21.4611 14.7341 21.9994 15.0938 22.4528 15.5472C22.9062 16.0006 23.2659 16.5389 23.5113 17.1313C23.7567 17.7238 23.883 18.3588 23.883 19C23.883 19.6412 23.7567 20.2762 23.5113 20.8687C23.2659 21.4611 22.9062 21.9994 22.4528 22.4528C21.5371 23.3686 20.2951 23.883 19 23.883C17.7049 23.883 16.4629 23.3686 15.5472 22.4528C14.6314 21.5371 14.117 20.2951 14.117 19C14.117 17.7049 14.6314 16.4629 15.5472 15.5472ZM24.966 14.8442C25.0784 14.7382 25.1683 14.6107 25.2305 14.4693C25.2928 14.328 25.326 14.1755 25.3282 14.0211C25.3305 13.8666 25.3017 13.7133 25.2436 13.5702C25.1856 13.427 25.0994 13.297 24.9901 13.1878C24.8809 13.0785 24.7509 12.9923 24.6078 12.9343C24.4646 12.8762 24.3113 12.8474 24.1568 12.8497C24.0024 12.8519 23.85 12.8852 23.7086 12.9474C23.5672 13.0096 23.4397 13.0995 23.3337 13.2119C23.1276 13.4304 23.0147 13.7207 23.0191 14.0211C23.0235 14.3215 23.1448 14.6083 23.3572 14.8207C23.5696 15.0332 23.8565 15.1544 24.1568 15.1588C24.4572 15.1632 24.7475 15.0503 24.966 14.8442Z" fill="#343434"/>
<rect x="0.5" y="0.5" width="37" height="37" rx="18.5" stroke="#343434"/>
</svg>
