<svg width="38" height="38" viewBox="0 0 38 38" fill="none" xmlns="http://www.w3.org/2000/svg">
<path fill-rule="evenodd" clip-rule="evenodd" d="M16.8211 21.7265V15.8221L22.5243 18.7848L16.8211 21.7265ZM29.3453 14.7999C29.3453 14.7999 29.1395 13.3511 28.5061 12.7134C27.7039 11.8771 26.8035 11.8729 26.3908 11.8236C23.4374 11.6113 19.0051 11.6113 19.0051 11.6113H18.9966C18.9966 11.6113 14.5654 11.6113 11.6109 11.8236C11.1982 11.8729 10.2989 11.8761 9.49559 12.7134C8.86226 13.3511 8.65642 14.7999 8.65642 14.7999C8.65642 14.7999 8.44531 16.4998 8.44531 18.2007V19.7945C8.44531 21.4943 8.65642 23.1953 8.65642 23.1953C8.65642 23.1953 8.86226 24.643 9.49559 25.2807C10.2978 26.118 11.3534 26.0907 11.8231 26.179C13.512 26.3397 19.0009 26.3891 19.0009 26.3891C19.0009 26.3891 23.4374 26.3828 26.3908 26.1706C26.8035 26.1212 27.7039 26.118 28.5061 25.2807C29.1395 24.643 29.3453 23.1953 29.3453 23.1953C29.3453 23.1953 29.5564 21.4943 29.5564 19.7945V18.2007C29.5564 16.4998 29.3453 14.7999 29.3453 14.7999Z" fill="#343434"/>
<rect x="0.5" y="0.5" width="37" height="37" rx="18.5" stroke="#343434"/>
</svg>
