<svg width="32" height="32" viewBox="0 0 32 32" fill="none" xmlns="http://www.w3.org/2000/svg">
<path d="M24 7.99996H21.3333C21.3333 5.05329 18.9466 2.66663 16 2.66663C13.0533 2.66663 10.6666 5.05329 10.6666 7.99996H7.99998C6.53331 7.99996 5.33331 9.19996 5.33331 10.6666V26.6666C5.33331 28.1333 6.53331 29.3333 7.99998 29.3333H24C25.4666 29.3333 26.6666 28.1333 26.6666 26.6666V10.6666C26.6666 9.19996 25.4666 7.99996 24 7.99996ZM16 5.33329C17.4666 5.33329 18.6666 6.53329 18.6666 7.99996H13.3333C13.3333 6.53329 14.5333 5.33329 16 5.33329ZM24 26.6666H7.99998V10.6666H10.6666V13.3333C10.6666 14.0666 11.2666 14.6666 12 14.6666C12.7333 14.6666 13.3333 14.0666 13.3333 13.3333V10.6666H18.6666V13.3333C18.6666 14.0666 19.2666 14.6666 20 14.6666C20.7333 14.6666 21.3333 14.0666 21.3333 13.3333V10.6666H24V26.6666Z" fill="#AAAAAA"/>
</svg>
